# xmcd
#
# Track frame offsets:
#	150
#	24178
#	43030
#	61143
#	75472
#	95609
#	117797
#	134576
#	166523
#
# Disc length: 2565 seconds
#
# Revision: 1
# Processed by: cddbd v1.5.2PL0 Copyright (c) Steve Scherf et al.
# Submitted via: audiograbber 1.83.01
#
DISCID=630a0309
DTITLE=Slim Cessna's Auto Club - Unentitled
DYEAR=2011
DGENRE=alt. country
TTITLE0=Three Bloodhounds Two Sheperds One Fila Brasileiro
TTITLE1=The Unballed Ballad Of The New Folksinger
TTITLE2=Thy Will Be Done
TTITLE3=No Doubt About It
TTITLE4=Do You Know Thee Enemy?
TTITLE5=A Smashing Indictment Of Character
TTITLE6=My Last Black Scarf
TTITLE7=Hallelujah Anyway
TTITLE8=United Brethren
EXTD=
EXTT0=
EXTT1=
EXTT2=
EXTT3=
EXTT4=
EXTT5=
EXTT6=
EXTT7=
EXTT8=
PLAYORDER=
